<svg width="17" height="21" viewBox="0 0 17 21" fill="none" xmlns="http://www.w3.org/2000/svg">
<path d="M8.68062 1.1647C8.68062 1.1647 1.17836 7.85509 1.18645 12.8638C1.19315 17.0131 4.56229 20.3714 8.71163 20.3647C12.861 20.358 16.2192 16.9888 16.2125 12.8395C16.2044 7.83082 8.68062 1.1647 8.68062 1.1647Z" fill="white"/>
<path d="M11.3853 13.4576C11.3832 12.1321 11.0728 10.7721 12.3983 10.77C13.7238 10.7679 13.406 11.8395 13.406 12.8395C13.4082 14.165 13.7238 15.0917 12.3983 15.0938C11.0728 15.0959 11.3875 14.7831 11.3853 13.4576Z" fill="white"/>
<path d="M8.68062 1.1647C8.68062 1.1647 1.17836 7.85509 1.18645 12.8638C1.19315 17.0131 4.56229 20.3714 8.71163 20.3647C12.861 20.358 16.2192 16.9888 16.2125 12.8395C16.2044 7.83082 8.68062 1.1647 8.68062 1.1647Z" stroke="#61646B"/>
<path d="M11.3853 13.4576C11.3832 12.1321 11.0728 10.7721 12.3983 10.77C13.7238 10.7679 13.406 11.8395 13.406 12.8395C13.4082 14.165 13.7238 15.0917 12.3983 15.0938C11.0728 15.0959 11.3875 14.7831 11.3853 13.4576Z" stroke="#61646B"/>
</svg>
