<svg width="25" height="25" viewBox="0 0 25 25" fill="none" xmlns="http://www.w3.org/2000/svg">
<g id="gift-01">
<path id="Icon" d="M12.6745 22.154V8.19037M11.0496 7.35268C11.2224 7.39147 11.4046 7.34392 11.529 7.21946C11.6535 7.09501 11.701 6.91277 11.6623 6.73997C11.5071 6.10619 10.9356 3.98395 10.3487 3.39708C9.61754 2.66592 8.42754 2.66287 7.7 3.39042C6.97251 4.11791 6.97545 5.30791 7.70666 6.03912C8.30313 6.63559 10.4158 7.19754 11.0496 7.35268ZM12.8241 6.73992C12.7853 6.91279 12.8329 7.09496 12.9573 7.21942C13.0818 7.34388 13.264 7.39135 13.4368 7.35263C14.0706 7.19747 16.1929 6.62594 16.7797 6.03907C17.5109 5.30791 17.5139 4.11791 16.7864 3.39037C16.0589 2.66288 14.8689 2.66582 14.1377 3.39703C13.5412 3.9935 12.9793 6.10616 12.8241 6.73992ZM3.59818 13.0776H21.4018C21.7874 13.0776 22.1 12.7651 22.1 12.3795V8.88855C22.1 8.50296 21.7874 8.19037 21.4018 8.19037H3.59818C3.21259 8.19037 2.9 8.50296 2.9 8.88855V12.3795C2.9 12.7651 3.21259 13.0776 3.59818 13.0776ZM20.3545 13.0776V21.4558C20.3545 21.8414 20.042 22.154 19.6564 22.154H5.34364C4.95804 22.154 4.64545 21.8414 4.64545 21.4558V13.0776H20.3545Z" stroke="#61646B" stroke-linecap="round" stroke-linejoin="round"/>
</g>
</svg>
